<svg width="24" height="24" viewBox="0 0 24 24" fill="none" xmlns="http://www.w3.org/2000/svg">
<path d="M17.0006 12.5321L15.3014 9.13375C13.817 6.16495 13.0748 4.68057 11.8995 4.68059C10.7242 4.68056 9.98197 6.16495 8.49757 9.13374L6.79838 12.5321C5.60033 14.9282 5.00131 16.1263 5.18518 16.8208C5.3601 17.4816 5.87615 17.9976 6.53687 18.1725C7.23145 18.3564 8.42949 17.7574 10.8256 16.5593C11.2103 16.367 11.4027 16.2708 11.604 16.2309C11.7991 16.1923 11.9999 16.1923 12.195 16.2309C12.3963 16.2708 12.5887 16.367 12.9734 16.5593C15.3695 17.7574 16.5676 18.3564 17.2621 18.1725C17.9228 17.9976 18.4389 17.4816 18.6138 16.8208C18.7977 16.1263 18.1987 14.9282 17.0006 12.5321Z" fill="white"/>
</svg>
