<svg width="18" height="17" viewBox="0 0 18 17" fill="none" xmlns="http://www.w3.org/2000/svg">
<path d="M6.69945 2.36418C7.25335 1.57065 7.92847 0.93061 8.89949 0.930634C9.87051 0.930636 10.5456 1.57065 11.0995 2.36418C11.6567 3.16239 12.2415 4.33732 12.9723 5.7989L14.6717 9.19702C15.2644 10.3824 15.7304 11.3131 16.021 12.0337C16.2951 12.7137 16.5007 13.4007 16.3386 14.0128C16.0947 14.934 15.3754 15.6534 14.4541 15.8973C13.8421 16.0594 13.155 15.8538 12.4751 15.5796C11.7545 15.2891 10.8238 14.823 9.63837 14.2303C9.21643 14.0193 9.12804 13.9828 9.04934 13.9672C8.95056 13.9477 8.84889 13.9471 8.75034 13.9665L8.74965 13.9672C8.67093 13.9828 8.58244 14.0194 8.16062 14.2303C6.97523 14.823 6.0445 15.2891 5.32391 15.5796C4.64395 15.8538 3.9569 16.0593 3.34484 15.8973C2.42363 15.6533 1.70428 14.934 1.46037 14.0128C1.29834 13.4008 1.50387 12.7137 1.77802 12.0337C2.06858 11.3131 2.53463 10.3824 3.12732 9.19702L4.82673 5.7989C5.55751 4.33733 6.14235 3.16239 6.69945 2.36418Z" fill="white" stroke="#15803D" stroke-width="1.5"/>
</svg>
