<svg width="20" height="20" viewBox="0 0 20 20" fill="none" xmlns="http://www.w3.org/2000/svg">
<path d="M3.125 2.5H16.875C18.5417 2.5 19.375 3.33333 19.375 5V15C19.375 16.6667 18.5417 17.5 16.875 17.5H3.125C1.45833 17.5 0.625 16.6667 0.625 15V5C0.625 3.33333 1.45833 2.5 3.125 2.5Z" fill="#215230"/>
<path opacity="0.15" d="M16.875 2.5H3.125C2.46196 2.5 1.82607 2.76339 1.35723 3.23223C0.888392 3.70107 0.625 4.33696 0.625 5V15C0.625 15.663 0.888392 16.2989 1.35723 16.7678C1.82607 17.2366 2.46196 17.5 3.125 17.5H16.875C17.538 17.5 18.1739 17.2366 18.6428 16.7678C19.1116 16.2989 19.375 15.663 19.375 15V5C19.375 4.33696 19.1116 3.70107 18.6428 3.23223C18.1739 2.76339 17.538 2.5 16.875 2.5ZM18.75 15C18.75 16.0333 17.9083 16.875 16.875 16.875H3.125C2.09167 16.875 1.25 16.0333 1.25 15V5C1.25 3.96667 2.09167 3.125 3.125 3.125H16.875C17.9083 3.125 18.75 3.96667 18.75 5V15Z" fill="black"/>
<path opacity="0.2" d="M16.875 3.125H3.125C2.62772 3.125 2.15081 3.32254 1.79917 3.67417C1.44754 4.02581 1.25 4.50272 1.25 5V5.625C1.25 5.12772 1.44754 4.65081 1.79917 4.29917C2.15081 3.94754 2.62772 3.75 3.125 3.75H16.875C17.3723 3.75 17.8492 3.94754 18.2008 4.29917C18.5525 4.65081 18.75 5.12772 18.75 5.625V5C18.75 4.50272 18.5525 4.02581 18.2008 3.67417C17.8492 3.32254 17.3723 3.125 16.875 3.125Z" fill="white"/>
<path d="M15.9167 9.38337C15.9833 9.0667 15.5333 7.40003 15.8583 7.65837C15.9 7.5417 15.675 7.2667 15.6167 7.1167C15.3917 7.80837 15.9083 9.1667 15.7417 10.0834C15.6167 10.35 14.7333 10.675 14.5333 10.7917C14.9917 10.925 16.1 10.3834 15.9167 9.38337Z" fill="white"/>
<path d="M6.56662 9.99983C6.68328 9.78317 6.70828 9.55817 6.69161 9.29983C6.86661 9.22483 7.08328 9.10817 7.15828 9.09983C7.10828 9.2665 7.22495 9.44983 7.45828 9.42483C7.50828 10.7665 7.67495 10.4832 7.60828 9.3915C7.75828 9.32483 7.78328 9.18317 7.84161 9.12483C8.17495 9.6665 8.65828 8.94983 8.34995 8.64983C8.34995 8.67483 8.27495 8.90816 8.27495 8.90816C8.27495 8.90816 8.34162 8.98317 8.34995 9.0165C8.27495 9.10817 7.94162 9.0415 7.95828 8.90816C7.97495 8.87483 8.04995 8.68317 7.94161 8.79983C7.84161 8.89983 7.78328 9.12483 7.58328 9.15817C7.59995 8.69983 7.33328 7.85817 7.45828 7.58317C7.57495 7.72483 7.57495 7.62483 7.50828 7.48317C7.39162 7.27483 7.32495 6.8665 7.21661 7.30817C7.33328 7.79983 7.34995 8.60817 7.43328 9.15817C7.20828 9.1165 7.27495 8.95817 7.27495 8.84983C7.24161 8.83317 6.84162 9.0415 6.67495 9.09983C6.65828 8.92483 6.63328 8.77483 6.61662 8.64983C7.24995 8.5915 7.00828 7.82483 6.87495 7.47483C6.89162 7.44983 7.05828 7.59983 6.95828 7.42483C6.79995 7.22483 6.73328 6.99983 6.65828 7.37483C6.75828 7.55817 6.84995 8.05817 6.94162 8.25817C6.87495 8.29983 6.73328 8.38317 6.59161 8.38317C6.59995 8.1665 6.41662 7.64983 6.55828 7.60817C6.65828 7.72483 6.67495 7.67483 6.59995 7.53317C6.47495 7.34983 6.38328 6.87483 6.29995 7.33317C6.40828 7.54983 6.35828 7.85817 6.42495 8.33317C6.03328 8.12483 6.34161 7.4665 6.01662 7.15817C5.99995 7.1915 5.93328 7.4165 5.94162 7.4165C6.26662 7.87483 5.73328 8.88317 5.20828 8.2415C5.14995 7.89983 5.50828 6.82483 4.99995 7.64983C4.89995 7.98317 4.64995 8.98317 4.36662 8.22483C4.30828 8.0165 4.42495 7.42483 4.29162 7.90817C4.21662 8.0915 4.31662 8.80816 4.64995 8.73317C4.94162 8.57483 4.95828 7.82483 5.18328 7.63317C4.73328 8.5915 5.79162 9.25817 6.07495 8.09983C6.08328 8.28317 6.21662 8.5665 6.45828 8.63317C6.47495 8.77483 6.49162 8.95816 6.51662 9.14983C6.47265 9.16521 6.42818 9.17911 6.38328 9.1915C6.00828 8.20817 5.12495 9.74983 6.26662 9.4415C6.28328 9.48317 6.29162 9.53316 6.29162 9.5665C5.75828 10.3082 3.81662 10.3082 5.08328 9.0165C5.12495 9.03317 5.19995 9.10817 5.19995 9.1165C5.24162 9.04983 5.26662 8.97483 5.14162 8.92483C5.34995 8.37483 4.59162 8.82483 5.05828 8.9915C4.96662 9.0915 4.74162 9.23317 4.60828 9.3165C4.49995 9.37483 4.18328 9.57483 4.10828 9.6165C4.07495 9.68317 4.39162 9.48317 4.48328 9.44983C3.54995 11.2248 5.93328 10.9415 6.56662 9.99983ZM4.55828 9.4165C4.62495 9.38317 4.69162 9.34983 4.74162 9.32483C3.89162 10.7998 6.37495 10.4582 6.40828 9.40817C6.44995 9.3915 6.49162 9.38316 6.53328 9.35817C6.54995 9.5165 6.55828 9.67483 6.56662 9.8165C6.34162 10.0832 5.81662 10.3998 5.34995 10.5165C4.49162 10.7832 4.19162 9.9165 4.55828 9.4165Z" fill="white"/>
<path d="M10.2167 10.3834C10.3667 10.2168 11.4167 9.93343 11.5917 9.84176C11.6083 9.8001 11.6833 9.64176 11.6833 9.60843C11.3333 9.64176 10.375 9.69176 10 9.6751C10.075 9.60843 10.4583 9.40843 10.7333 9.3251C10.7588 9.36575 10.7758 9.41109 10.7833 9.45843C10.8 9.44176 10.8167 9.36676 10.8167 9.3001C11 9.24176 11.0917 9.2251 11.1333 9.20843C11.1583 9.1751 11.2083 9.04176 11.2083 8.9501C10.9833 8.54176 10.2667 8.6751 10.6167 9.1501C10.3333 9.26676 9.85 9.49176 9.71667 9.68343L9.69167 9.69176C9.68334 9.7001 9.65 9.85843 9.63334 9.90843C9.46667 9.41676 9.41667 8.78343 9.14167 8.6001C8.98334 8.91676 9.45834 9.54176 9.45834 9.88343C9.36667 10.0918 8.21667 10.9834 8.01667 10.4751C8.725 10.2084 9.45834 9.73343 8.85834 9.04176C8.85 9.01676 8.93334 9.0501 8.975 9.0501C9.00834 8.98343 8.75834 8.83343 8.69167 8.76676C8.63334 8.75843 8.625 8.95843 8.625 9.0001C8.7 9.10843 8.93334 9.55843 8.99167 9.69176C8.90834 9.8001 8.46667 10.0334 8.04167 10.2334C8.04167 10.1251 8.3 9.8251 8.23334 9.74176C8.05834 10.0668 8.03334 9.54176 8.15834 9.43343C8.28334 9.03343 7.74167 10.0251 8.1 10.0001C8.06667 10.0751 8.01667 10.1584 7.98334 10.2584C7.49167 10.4918 6.73334 10.7084 6.4 10.8168C6.41667 10.7584 6.41667 10.7084 6.4 10.7251C6.05834 11.1251 6.39167 10.2168 6.34167 10.3084C6.15 10.4501 6.04167 11.3001 6.39167 10.8418C6.66667 10.7834 7.59167 10.7168 7.94167 10.5084C7.99167 11.4418 9.58334 10.3251 9.50834 9.8501C9.55 10.4168 9.85 10.8084 10.6667 10.8501C10.6667 10.7834 10.6417 10.5834 10.6417 10.5834C10.5417 10.5668 10.2833 10.5334 10.2167 10.3834ZM9.64167 9.9251C10.0417 9.92076 10.4418 9.91243 10.8417 9.9001C10.5333 10.0084 10.1083 10.0668 10.1333 10.5001C9.88334 10.4418 9.74167 10.2084 9.64167 9.9251Z" fill="white"/>
<path d="M8.01664 8.63311C8.29997 8.48311 8.31664 7.75811 8.54997 7.58311C8.07497 8.49977 9.2083 9.10811 9.42497 7.99977C9.62497 9.06644 10.7916 8.39977 10.2416 7.56644C10.0916 7.22477 10.3833 7.58311 10.2833 7.35811C10.125 7.15811 10.0583 6.93311 9.9833 7.30811C10.0833 7.49144 10.1833 7.98311 10.2666 8.19977C9.41664 8.64977 9.6833 7.47477 9.37497 7.05811C9.3583 7.09144 9.29164 7.31644 9.29164 7.31644C9.81664 8.49144 8.11664 8.78311 8.66664 7.39977C8.3833 6.94977 8.26664 8.43311 7.94997 8.40811C7.69164 8.40811 7.69164 7.84144 7.72497 7.71644C7.54164 7.72477 7.6333 8.74977 8.01664 8.63311Z" fill="white"/>
<path d="M14.8583 8.89176C14.8916 9.48343 14.95 10.0501 14.9333 10.4751C15.15 10.2501 15.0333 9.54176 15.025 9.08343C15.3 9.40843 15.6 9.7751 15.6666 10.1334C15.675 10.1584 15.7083 10.0668 15.7 9.9251C15.7333 9.6751 15.2833 9.10843 15.0083 8.8001C15.0416 8.50843 14.7833 7.75843 14.9333 7.59176C15.0333 7.70843 15.05 7.65843 14.975 7.51676C14.85 7.3251 14.7666 6.88343 14.6833 7.33343C14.7916 7.56676 14.7666 8.10843 14.8416 8.61676C14.6 8.3501 14.45 8.18343 14.3166 8.0501C14.325 7.93343 14.2 7.55843 14.3333 7.6001C14.4333 7.71676 14.45 7.66676 14.375 7.5251C14.25 7.3251 14.1583 6.88343 14.0666 7.34176C14.15 7.45843 14.1083 7.6001 14.15 7.8501C13.9666 7.5751 13.725 7.45843 14.0416 7.49176C13.9083 7.4001 13.4 6.91676 13.5333 7.38343C13.725 7.4751 13.925 7.89176 14.175 8.13343C14.2166 8.66676 14.3333 9.5251 14.3583 10.0168C13.85 10.4584 13.7583 10.0251 13.4666 9.85843C13.4666 9.71676 13.4666 9.58343 13.4583 9.5001C13.525 9.18343 13.1 7.4251 13.4333 7.68343C13.4083 7.54176 13.1416 6.8001 13.0833 7.33343C13.225 7.81676 13.2416 8.8251 13.3166 9.5001C13.325 9.56676 13.3333 9.68343 13.3333 9.80843C12.9166 9.9251 12.7333 11.2251 12.2666 10.4751C13.1 9.8501 12.525 8.4001 12.475 7.59176C12.4833 7.54176 12.5583 7.65843 12.6 7.6751C12.6333 7.55843 12.425 7.25843 12.35 7.1001C12.05 7.70843 12.8166 9.04176 12.5333 9.86676C12.575 9.4751 12.1083 9.0001 11.7666 8.69176C11.8 8.5251 11.4416 7.35843 11.75 7.68343C11.775 7.66676 11.75 7.58343 11.7083 7.50843C11.5833 7.3001 11.5166 6.9001 11.4166 7.33343C11.5 7.44176 11.5416 8.3501 11.5916 8.5251C11.3916 8.29176 10.4333 7.60843 10.8916 7.6751C10.8916 7.66676 10.8666 7.63343 10.8166 7.6001C10.6416 7.54176 10.275 7.10843 10.3833 7.56676C10.4083 7.56676 10.45 7.6001 10.4833 7.63343C10.7166 7.95843 11.275 8.49176 11.6333 8.81676C11.775 10.5501 12.0083 11.0334 11.8083 8.98343C12.1 9.2751 12.4333 9.59176 12.4916 9.95843C12.4333 10.0834 12.3416 10.2001 12.2166 10.2834C12.1833 10.0501 12.2166 9.85843 12.1833 9.84176C12.1083 9.88343 12.1333 10.1918 12.15 10.3334C11.1333 10.8834 10.9666 11.0168 12.1916 10.5251C12.6166 11.5918 12.9 10.2668 13.3166 10.0418C13.325 10.0501 13.3333 10.0584 13.35 10.0668C13.3583 10.2001 13.3583 10.3168 13.35 10.3501C13.4083 10.3501 13.4333 10.2584 13.45 10.1418C14.6833 11.1001 14.5083 9.28343 14.3583 8.34176C14.5666 8.58343 14.7 8.7251 14.8666 8.89176H14.8583Z" fill="white"/>
<path d="M13.85 12.9167H12.9083C12.9833 12.8667 13.0167 12.7917 13.0083 12.7084C13 12.6584 12.95 12.625 12.9 12.6167H12.8667C12.7916 12.625 12.7417 12.675 12.75 12.7334L12.7583 12.7584V12.7917C12.7635 12.8335 12.7606 12.8759 12.75 12.9167H5.81665C5.91665 13.0667 6.10832 13.1584 6.31665 13.15H12.6333C12.5583 13.2 12.525 13.275 12.5333 13.3584C12.5417 13.4167 12.6083 13.4584 12.675 13.4417C12.75 13.4334 12.8 13.3834 12.7917 13.3334V13.3084L12.7833 13.275C12.7811 13.2327 12.7867 13.1903 12.8 13.15H13.575L13.6 13.1834C13.6167 13.2167 13.6417 13.25 13.675 13.275L13.7167 13.3084C13.7917 13.3667 13.9 13.4 14 13.3917C14.1 13.3917 14.1833 13.325 14.175 13.2417V13.1917C14.175 13.0334 14.025 12.9084 13.85 12.9167Z" fill="white"/>
</svg>
