<svg width="21" height="20" viewBox="0 0 21 20" fill="none" xmlns="http://www.w3.org/2000/svg">
<path d="M9.90233 2.87775C10.0943 2.48863 10.1904 2.29407 10.3207 2.23191C10.4342 2.17782 10.566 2.17782 10.6794 2.23191C10.8098 2.29407 10.9058 2.48863 11.0979 2.87775L12.9202 6.56938C12.9768 6.68426 13.0052 6.7417 13.0466 6.7863C13.0833 6.82578 13.1273 6.85778 13.1762 6.8805C13.2314 6.90617 13.2947 6.91543 13.4215 6.93396L17.4976 7.52974C17.9268 7.59248 18.1414 7.62384 18.2407 7.72868C18.3272 7.81989 18.3677 7.94523 18.3513 8.06979C18.3324 8.21297 18.1771 8.36432 17.8663 8.66698L14.9179 11.5387C14.8261 11.6282 14.7801 11.673 14.7504 11.7262C14.7242 11.7733 14.7073 11.8252 14.7008 11.8787C14.6935 11.9392 14.7043 12.0025 14.726 12.1289L15.4217 16.1851C15.4951 16.6129 15.5317 16.8268 15.4628 16.9537C15.4028 17.0641 15.2962 17.1417 15.1727 17.1646C15.0306 17.1909 14.8385 17.0898 14.4543 16.8878L10.8104 14.9715C10.6968 14.9118 10.6401 14.882 10.5802 14.8702C10.5273 14.8598 10.4728 14.8598 10.4199 14.8702C10.3601 14.882 10.3033 14.9118 10.1898 14.9715L6.54585 16.8878C6.16168 17.0898 5.96959 17.1909 5.82755 17.1646C5.70398 17.1417 5.59735 17.0641 5.53736 16.9537C5.46841 16.8268 5.5051 16.6129 5.57847 16.1851L6.27415 12.1289C6.29584 12.0025 6.30669 11.9392 6.29935 11.8787C6.29285 11.8252 6.276 11.7733 6.24975 11.7262C6.2201 11.673 6.17415 11.6282 6.08224 11.5387L3.13388 8.66698C2.82313 8.36432 2.66775 8.21297 2.64885 8.06979C2.6324 7.94523 2.67304 7.81989 2.75945 7.72868C2.85878 7.62384 3.07339 7.59248 3.50261 7.52974L7.57867 6.93396C7.70543 6.91543 7.76881 6.90617 7.82401 6.8805C7.87288 6.85778 7.91688 6.82578 7.95357 6.7863C7.995 6.7417 8.02335 6.68426 8.08005 6.56938L9.90233 2.87775Z" stroke="#FFC700" stroke-width="1.5" stroke-linecap="round" stroke-linejoin="round"/>
</svg>
