<svg width="20" height="20" viewBox="0 0 20 20" fill="none" xmlns="http://www.w3.org/2000/svg">
<path d="M3.125 2.5H16.875C18.5417 2.5 19.375 3.33333 19.375 5V15C19.375 16.6667 18.5417 17.5 16.875 17.5H3.125C1.45833 17.5 0.625 16.6667 0.625 15V5C0.625 3.33333 1.45833 2.5 3.125 2.5Z" fill="#071B65"/>
<path d="M3.19163 2.5H3.12496C2.53486 2.49992 1.96388 2.70927 1.51369 3.09079C1.0635 3.4723 0.763332 4.00121 0.666626 4.58333L16.8083 17.5H16.875C17.4651 17.5001 18.036 17.2907 18.4862 16.9092C18.9364 16.5277 19.2366 15.9988 19.3333 15.4167L3.19163 2.5Z" fill="white"/>
<path d="M13.9083 11.875H12.3417L18.55 16.8417C18.7917 16.625 18.9917 16.3583 19.1333 16.0583L13.9083 11.875Z" fill="#B92932"/>
<path d="M0.866699 3.94154L6.0917 8.12487H7.65837L1.45003 3.1582C1.20598 3.37842 1.00775 3.64461 0.866699 3.94154Z" fill="#B92932"/>
<path d="M3.12496 17.5H3.19163L19.3333 4.58333C19.2366 4.00121 18.9364 3.4723 18.4862 3.09079C18.036 2.70927 17.4651 2.49992 16.875 2.5H16.8083L0.666626 15.4167C0.763332 15.9988 1.0635 16.5277 1.51369 16.9092C1.96388 17.2907 2.53486 17.5001 3.12496 17.5Z" fill="white"/>
<path d="M8.125 2.5H11.875V17.5H8.125V2.5Z" fill="white"/>
<path d="M0.625 8.125H19.375V11.875H0.625V8.125Z" fill="white"/>
<path d="M8.75 2.5H11.25V17.5H8.75V2.5Z" fill="#B92932"/>
<path d="M19.375 8.75V11.25H0.625V8.75H19.375Z" fill="#B92932"/>
<path d="M17.6417 2.6333L11.875 7.24163V8.12497H12.3417L18.5583 3.1583C18.294 2.91959 17.9813 2.74053 17.6417 2.6333Z" fill="#B92932"/>
<path d="M1.45837 16.85C1.71864 17.0837 2.02534 17.2597 2.35837 17.3667L8.12504 12.7583V11.875H7.65837L1.45837 16.85Z" fill="#B92932"/>
<path opacity="0.15" d="M16.875 2.5H3.125C2.46196 2.5 1.82607 2.76339 1.35723 3.23223C0.888392 3.70107 0.625 4.33696 0.625 5V15C0.625 15.663 0.888392 16.2989 1.35723 16.7678C1.82607 17.2366 2.46196 17.5 3.125 17.5H16.875C17.538 17.5 18.1739 17.2366 18.6428 16.7678C19.1116 16.2989 19.375 15.663 19.375 15V5C19.375 4.33696 19.1116 3.70107 18.6428 3.23223C18.1739 2.76339 17.538 2.5 16.875 2.5ZM18.75 15C18.75 16.0333 17.9083 16.875 16.875 16.875H3.125C2.09167 16.875 1.25 16.0333 1.25 15V5C1.25 3.96667 2.09167 3.125 3.125 3.125H16.875C17.9083 3.125 18.75 3.96667 18.75 5V15Z" fill="black"/>
<path opacity="0.2" d="M16.875 3.125H3.125C2.62772 3.125 2.15081 3.32254 1.79917 3.67417C1.44754 4.02581 1.25 4.50272 1.25 5V5.625C1.25 5.12772 1.44754 4.65081 1.79917 4.29917C2.15081 3.94754 2.62772 3.75 3.125 3.75H16.875C17.3723 3.75 17.8492 3.94754 18.2008 4.29917C18.5525 4.65081 18.75 5.12772 18.75 5.625V5C18.75 4.50272 18.5525 4.02581 18.2008 3.67417C17.8492 3.32254 17.3723 3.125 16.875 3.125Z" fill="white"/>
</svg>
