<svg width="20" height="20" viewBox="0 0 20 20" fill="none" xmlns="http://www.w3.org/2000/svg">
<path d="M13.3333 6.66652V3.7504C13.3333 3.05728 13.3333 2.71072 13.1873 2.49775C13.0597 2.31167 12.8622 2.18527 12.6398 2.14742C12.3852 2.10411 12.0706 2.24933 11.4412 2.53979L4.04918 5.95151C3.48793 6.21056 3.20729 6.34008 3.00176 6.54096C2.82005 6.71854 2.68135 6.93531 2.59625 7.17471C2.5 7.44551 2.5 7.75459 2.5 8.37275V12.4998M13.75 12.0832H13.7583M2.5 9.33316V14.8332C2.5 15.7666 2.5 16.2333 2.68166 16.5898C2.84144 16.9034 3.09641 17.1584 3.41002 17.3182C3.76653 17.4998 4.23324 17.4998 5.16667 17.4998H14.8333C15.7667 17.4998 16.2335 17.4998 16.59 17.3182C16.9036 17.1584 17.1586 16.9034 17.3183 16.5898C17.5 16.2333 17.5 15.7666 17.5 14.8332V9.33316C17.5 8.39975 17.5 7.93306 17.3183 7.57654C17.1586 7.26293 16.9036 7.00796 16.59 6.84818C16.2335 6.66652 15.7667 6.66652 14.8333 6.66652H5.16667C4.23325 6.66652 3.76653 6.66652 3.41002 6.84817C3.09642 7.00796 2.84144 7.26293 2.68166 7.57654C2.5 7.93306 2.5 8.39975 2.5 9.33316ZM14.1667 12.0832C14.1667 12.3133 13.9801 12.4998 13.75 12.4998C13.5199 12.4998 13.3333 12.3133 13.3333 12.0832C13.3333 11.8531 13.5199 11.6665 13.75 11.6665C13.9801 11.6665 14.1667 11.8531 14.1667 12.0832Z" stroke="white" stroke-width="1.5" stroke-linecap="round" stroke-linejoin="round"/>
</svg>
